<?xml version="1.0" encoding="utf-8"?>
<!-- Generator: Adobe Illustrator 25.4.1, SVG Export Plug-In . SVG Version: 6.00 Build 0)  -->
<svg version="1.1" id="Capa_1" xmlns="http://www.w3.org/2000/svg" xmlns:xlink="http://www.w3.org/1999/xlink" x="0px" y="0px"
	 viewBox="0 0 85 113.4" style="enable-background:new 0 0 85 113.4;" xml:space="preserve">
<image style="overflow:visible;" width="2000" height="1414" xlink:href="G/3.png"  transform="matrix(4.251968e-02 0 0 8.018800e-02 1746 0)">
</image>
<image style="overflow:visible;" width="2000" height="1414" xlink:href="G/4.png"  transform="matrix(4.251968e-02 0 0 8.018800e-02 873 0)">
</image>
<image style="overflow:visible;" width="2000" height="1414" xlink:href="G/17.png"  transform="matrix(4.251968e-02 0 0 8.018800e-02 873 0)">
</image>
<image style="overflow:visible;" width="2000" height="1414" xlink:href="G/18.png"  transform="matrix(4.251968e-02 0 0 8.018800e-02 873 0)">
</image>
<image style="overflow:visible;" width="2000" height="1414" xlink:href="G/4.png"  transform="matrix(4.251968e-02 0 0 8.018800e-02 2619 0)">
</image>
<image style="overflow:visible;" width="2000" height="1414" xlink:href="G/17.png"  transform="matrix(-3.213533e-06 -5.669291e-02 6.014100e-02 -3.408981e-06 0 113.3882)">
</image>
</svg>
